<svg width="81" height="80" viewBox="0 0 81 80" fill="none" xmlns="http://www.w3.org/2000/svg">
<path d="M40.6649 53.3333C38.8968 53.3333 37.2011 52.631 35.9508 51.3807C34.7006 50.1305 33.9982 48.4348 33.9982 46.6667C33.9982 44.8986 34.7006 43.2029 35.9508 41.9526C37.2011 40.7024 38.8968 40 40.6649 40M40.6649 53.3333C42.433 53.3333 44.1287 52.631 45.3789 51.3807C46.6292 50.1305 47.3315 48.4348 47.3315 46.6667C47.3315 44.8986 46.6292 43.2029 45.3789 41.9526C44.1287 40.7024 42.433 40 40.6649 40M40.6649 53.3333V58.3333M40.6649 40V35M50.7684 40.8333L46.4384 43.3333M34.8916 50L30.5583 52.5M50.6648 52.6767L46.3814 50.1M34.9482 43.2333L30.6649 40.6566M47.3315 10V23.3333C47.3315 24.2174 47.6827 25.0652 48.3079 25.6904C48.933 26.3155 49.7808 26.6667 50.6649 26.6667H63.9982M47.3315 10H23.9982C22.2301 10 20.5344 10.7024 19.2842 11.9526C18.0339 13.2029 17.3315 14.8986 17.3315 16.6667V63.3333C17.3315 65.1014 18.0339 66.7971 19.2842 68.0474C20.5344 69.2976 22.2301 70 23.9982 70H57.3315C59.0997 70 60.7953 69.2976 62.0456 68.0474C63.2958 66.7971 63.9982 65.1014 63.9982 63.3333V26.6667M47.3315 10L63.9982 26.6667" stroke="#D8D8D8" stroke-width="2" stroke-linecap="round" stroke-linejoin="round"/>
</svg>
