<svg xmlns="http://www.w3.org/2000/svg" width="80" height="80" viewBox="0 0 80 80" fill="none">
<g id="record">
<path id="label" d="M46.6714 10V23.3333C46.6714 24.2174 47.0226 25.0652 47.6477 25.6904C48.2728 26.3155 49.1207 26.6667 50.0047 26.6667H63.3381M46.6714 10H23.3381C21.5699 10 19.8743 10.7024 18.624 11.9526C17.3738 13.2029 16.6714 14.8986 16.6714 16.6667V63.3333C16.6714 65.1014 17.3738 66.7971 18.624 68.0474C19.8743 69.2976 21.5699 70 23.3381 70H40.0047M46.6714 10L63.3381 26.6667M63.3381 26.6667V41.6667M61.6714 65L70.0047 73.3333M46.6714 58.3333C46.6714 60.5435 47.5494 62.6631 49.1122 64.2259C50.675 65.7887 52.7946 66.6667 55.0047 66.6667C57.2149 66.6667 59.3345 65.7887 60.8973 64.2259C62.4601 62.6631 63.3381 60.5435 63.3381 58.3333C63.3381 56.1232 62.4601 54.0036 60.8973 52.4408C59.3345 50.878 57.2149 50 55.0047 50C52.7946 50 50.675 50.878 49.1122 52.4408C47.5494 54.0036 46.6714 56.1232 46.6714 58.3333Z" stroke="url(#file)" stroke-width="2" stroke-linecap="round" stroke-linejoin="round"/>
</g>
<defs>
<linearGradient id="file" x1="-3.32861" y1="21.3802" x2="85.4505" y2="56.2442" gradientUnits="file">
<stop stop-color="#F083FF"/>
<stop offset="0.505208" stop-color="#BEC8FF"/>
<stop offset="1" stop-color="#9FFFD6"/>
</linearGradient>
</defs>
</svg>